<svg width="134" height="147" viewBox="0 0 134 147" fill="none" xmlns="http://www.w3.org/2000/svg">
<path fill-rule="evenodd" clip-rule="evenodd" d="M98.1565 13.2858H46.2886C45.58 13.2858 45.0131 12.719 45.0131 12.0104V1.27544C45.0131 0.566862 44.4463 0 43.7377 0H2.00249C1.29391 0 0.727051 0.566862 0.727051 1.27544V56.2965C0.727051 57.0051 1.29391 57.5719 2.00249 57.5719H132.31C133.018 57.5719 133.585 57.0051 133.585 56.2965V48.7147C133.585 29.1491 117.722 13.2858 98.1565 13.2858ZM0.895011 103.135V144.87C0.895011 145.579 1.46187 146.146 2.17045 146.146H98.1562C117.722 146.146 133.585 130.283 133.585 110.717V103.135C133.585 102.427 133.018 101.86 132.31 101.86H2.17045C1.46187 101.86 0.895011 102.427 0.895011 103.135ZM125.76 87.8247C130.082 87.8247 133.588 84.5305 133.588 79.9965C133.588 75.4625 130.082 72.1683 125.76 72.1683C121.439 72.1683 117.932 75.4625 117.932 79.9965C117.932 84.5305 121.439 87.8247 125.76 87.8247ZM125.76 73.6206C129.302 73.6206 131.959 76.3835 131.959 79.9965C131.959 83.6095 129.302 86.3724 125.76 86.3724C122.218 86.3724 119.561 83.6095 119.561 79.9965C119.561 76.3835 122.218 73.6206 125.76 73.6206ZM124.485 84.07V80.5278H125.3L127.531 84.07H129.692L127.39 80.457C128.7 80.1736 129.338 79.1818 129.338 78.1546C129.338 76.7731 128.275 75.8168 126.504 75.8168H122.537V84.07H124.485ZM124.485 77.1982H126.15C126.929 77.1982 127.283 77.6233 127.283 78.19C127.283 78.7213 126.929 79.1818 126.15 79.1818H124.485V77.1982Z" fill="#FFFDF5"/>
</svg>
