<svg width="109" height="18" viewBox="0 0 109 18" fill="none" xmlns="http://www.w3.org/2000/svg">
<path d="M0.321023 18V0.545454H7.59943C8.90625 0.545454 10 0.730113 10.8807 1.09943C11.767 1.46875 12.4318 1.98579 12.875 2.65057C13.3239 3.31534 13.5483 4.08523 13.5483 4.96023C13.5483 5.625 13.4091 6.21875 13.1307 6.74148C12.8523 7.25852 12.4688 7.6875 11.9801 8.02841C11.4915 8.36932 10.9261 8.60795 10.2841 8.74432V8.91477C10.9886 8.94886 11.6392 9.1392 12.2358 9.4858C12.8381 9.83239 13.321 10.3153 13.6847 10.9347C14.0483 11.5483 14.2301 12.2756 14.2301 13.1165C14.2301 14.054 13.9915 14.892 13.5142 15.6307C13.0369 16.3636 12.3466 16.9432 11.4432 17.3693C10.5398 17.7898 9.44318 18 8.15341 18H0.321023ZM4.53977 14.5994H7.14773C8.0625 14.5994 8.7358 14.4261 9.16761 14.0795C9.60511 13.733 9.82386 13.25 9.82386 12.6307C9.82386 12.1818 9.71875 11.7955 9.50852 11.4716C9.2983 11.142 9 10.8892 8.61364 10.7131C8.22727 10.5312 7.7642 10.4403 7.22443 10.4403H4.53977V14.5994ZM4.53977 7.72159H6.875C7.33523 7.72159 7.74432 7.64489 8.10227 7.49148C8.46023 7.33807 8.73864 7.11648 8.9375 6.8267C9.14205 6.53693 9.24432 6.1875 9.24432 5.77841C9.24432 5.19318 9.03693 4.73295 8.62216 4.39773C8.20739 4.0625 7.64773 3.89489 6.94318 3.89489H4.53977V7.72159ZM16.2585 18V0.545454H20.4773V14.5739H27.7386V18H16.2585ZM33.9325 18H29.3984L35.2876 0.545454H40.9041L46.7933 18H42.2592L38.1598 4.94318H38.0234L33.9325 18ZM33.3274 11.1307H42.8047V14.3352H33.3274V11.1307ZM63.5277 0.545454V18H59.9482L53.0021 7.92614H52.8913V18H48.6726V0.545454H52.3033L59.1726 10.6023H59.3175V0.545454H63.5277ZM72.6321 18H66.1804V0.545454H72.6236C74.402 0.545454 75.9332 0.894886 77.2173 1.59375C78.5071 2.28693 79.5014 3.28693 80.2003 4.59375C80.8991 5.89489 81.2486 7.4517 81.2486 9.2642C81.2486 11.0824 80.8991 12.6449 80.2003 13.9517C79.5071 15.2585 78.5156 16.2614 77.2259 16.9602C75.9361 17.6534 74.4048 18 72.6321 18ZM70.3991 14.4034H72.4702C73.4474 14.4034 74.2741 14.2386 74.9503 13.9091C75.6321 13.5739 76.1463 13.0312 76.4929 12.2812C76.8452 11.5256 77.0213 10.5199 77.0213 9.2642C77.0213 8.00852 76.8452 7.00852 76.4929 6.2642C76.1406 5.5142 75.6207 4.97443 74.9332 4.64489C74.2514 4.30966 73.4105 4.14204 72.4105 4.14204H70.3991V14.4034ZM90.7749 18H88.5589L94.968 0.545454H97.1499L103.559 18H101.343L96.1271 3.30682H95.9908L90.7749 18ZM91.593 11.1818H100.525V13.0568H91.593V11.1818ZM108.391 0.545454V18H106.278V0.545454H108.391Z" fill="#DCE1DC"/>
</svg>
