<svg width="55" height="9" viewBox="0 0 55 9" fill="none" xmlns="http://www.w3.org/2000/svg">
<path d="M0.660511 9V0.272727H4.29972C4.95313 0.272727 5.5 0.365057 5.94034 0.549716C6.38352 0.734375 6.71591 0.992897 6.9375 1.32528C7.16193 1.65767 7.27415 2.04261 7.27415 2.48011C7.27415 2.8125 7.20455 3.10938 7.06534 3.37074C6.92614 3.62926 6.73438 3.84375 6.49006 4.0142C6.24574 4.18466 5.96307 4.30398 5.64205 4.37216V4.45739C5.99432 4.47443 6.3196 4.5696 6.6179 4.7429C6.91903 4.91619 7.16051 5.15767 7.34233 5.46733C7.52415 5.77415 7.61506 6.13778 7.61506 6.55824C7.61506 7.02699 7.49574 7.44602 7.2571 7.81534C7.01847 8.18182 6.6733 8.47159 6.22159 8.68466C5.76989 8.89489 5.22159 9 4.5767 9H0.660511ZM2.76989 7.29972H4.07386C4.53125 7.29972 4.8679 7.21307 5.08381 7.03977C5.30256 6.86648 5.41193 6.625 5.41193 6.31534C5.41193 6.09091 5.35938 5.89773 5.25426 5.7358C5.14915 5.57102 5 5.4446 4.80682 5.35653C4.61364 5.26562 4.3821 5.22017 4.11222 5.22017H2.76989V7.29972ZM2.76989 3.8608H3.9375C4.16761 3.8608 4.37216 3.82244 4.55114 3.74574C4.73011 3.66903 4.86932 3.55824 4.96875 3.41335C5.07102 3.26847 5.12216 3.09375 5.12216 2.8892C5.12216 2.59659 5.01847 2.36648 4.81108 2.19886C4.60369 2.03125 4.32386 1.94744 3.97159 1.94744H2.76989V3.8608ZM8.62926 9V0.272727H10.7386V7.28693H14.3693V9H8.62926ZM17.4663 9H15.1992L18.1438 0.272727H20.9521L23.8967 9H21.6296L19.5799 2.47159H19.5117L17.4663 9ZM17.1637 5.56534H21.9023V7.16761H17.1637V5.56534ZM32.2638 0.272727V9H30.4741L27.0011 3.96307H26.9457V9H24.8363V0.272727H26.6516L30.0863 5.30114H30.1587V0.272727H32.2638ZM36.8161 9H33.5902V0.272727H36.8118C37.701 0.272727 38.4666 0.447443 39.1087 0.796875C39.7536 1.14347 40.2507 1.64347 40.6001 2.29688C40.9496 2.94744 41.1243 3.72585 41.1243 4.6321C41.1243 5.54119 40.9496 6.32244 40.6001 6.97585C40.2536 7.62926 39.7578 8.13068 39.1129 8.48011C38.468 8.8267 37.7024 9 36.8161 9ZM35.6996 7.2017H36.7351C37.2237 7.2017 37.6371 7.11932 37.9751 6.95455C38.3161 6.78693 38.5732 6.51562 38.7464 6.14062C38.9226 5.76278 39.0107 5.25994 39.0107 4.6321C39.0107 4.00426 38.9226 3.50426 38.7464 3.1321C38.5703 2.7571 38.3104 2.48722 37.9666 2.32244C37.6257 2.15483 37.2053 2.07102 36.7053 2.07102H35.6996V7.2017ZM45.8874 9H44.7795L47.984 0.272727H49.0749L52.2795 9H51.1715L48.5636 1.65341H48.4954L45.8874 9ZM46.2965 5.59091H50.7624V6.52841H46.2965V5.59091ZM54.6957 0.272727V9H53.6388V0.272727H54.6957Z" fill="#121212"/>
</svg>
